<?xml version="1.0" encoding="utf-8"?>
<svg id="svg" version="1.1" width="400" height="450" viewBox="0 0 400 450" xmlns="http://www.w3.org/2000/svg" xmlns:xlink="http://www.w3.org/1999/xlink" ><g><path fill="#000" d="M185.000 34.632 C 153.144 39.156,136.633 45.583,114.400 62.113 C 62.993 100.336,46.425 176.672,76.485 236.800 C 96.829 277.494,134.247 303.447,181.445 309.599 C 184.940 310.055,188.880 310.600,190.200 310.811 C 197.385 311.958,211.135 311.050,227.000 308.381 C 285.521 298.538,330.912 250.518,337.387 191.600 C 337.738 188.410,338.239 184.540,338.501 183.000 C 340.774 169.620,336.909 142.631,329.794 122.200 C 318.879 90.857,295.185 64.161,264.416 48.538 C 241.880 37.094,208.643 31.275,185.000 34.632 M206.800 84.015 C 240.417 87.028,265.358 103.104,279.388 130.802 C 294.536 160.708,291.697 200.003,272.482 226.400 C 246.273 262.405,191.573 272.209,151.857 248.018 C 113.774 224.822,100.510 174.045,121.329 131.149 C 136.479 99.931,171.137 80.819,206.800 84.015 M39.800 367.173 C 33.748 368.651,33.599 369.241,33.602 391.750 C 33.605 413.632,33.785 414.497,38.683 416.166 C 41.092 416.987,363.438 417.155,366.686 416.337 C 372.180 414.953,372.496 413.514,372.330 390.600 L 372.200 372.600 371.200 370.800 C 370.462 369.471,369.677 368.738,368.200 368.000 L 366.200 367.000 203.600 366.940 C 114.170 366.907,40.460 367.012,39.800 367.173" stroke="none" fill-rule="evenodd"></path></g></svg>
